<?xml version="1.0" standalone="no"?>
<!DOCTYPE svg PUBLIC "-//W3C//DTD SVG 20010904//EN"
 "http://www.w3.org/TR/2001/REC-SVG-20010904/DTD/svg10.dtd">
<svg version="1.0" xmlns="http://www.w3.org/2000/svg"
 width="370.000000pt" height="370.000000pt" viewBox="0 0 370.000000 370.000000"
 preserveAspectRatio="xMidYMid meet">
<metadata>
Created by potrace 1.14, written by Peter Selinger 2001-2017
</metadata>
<g transform="translate(0.000000,370.000000) scale(0.100000,-0.100000)"
fill="#000000" stroke="none">
<path d="M775 3644 c-11 -2 -45 -9 -75 -15 -332 -65 -604 -334 -676 -669 -24
-113 -21 -263 7 -375 5 -22 11 -47 13 -56 3 -9 15 -41 27 -70 119 -279 348
-463 684 -549 165 -42 171 -76 19 -116 -380 -98 -625 -305 -732 -619 -29 -87
-34 -116 -37 -250 -4 -170 21 -265 118 -450 29 -54 125 -162 194 -218 221
-179 519 -243 794 -172 314 82 558 322 662 650 14 44 28 97 32 118 15 77 67
85 85 13 25 -99 63 -212 93 -274 163 -348 487 -552 853 -538 125 5 151 9 255
42 263 83 475 294 558 555 29 92 32 112 37 234 15 444 -310 820 -795 918 -69
13 -94 34 -76 63 6 9 51 27 105 41 96 24 254 83 300 111 139 85 218 153 295
252 185 240 229 550 118 829 -89 224 -279 406 -511 491 -368 134 -777 21
-1017 -283 -101 -127 -184 -306 -210 -452 -9 -47 -21 -65 -45 -65 -24 0 -38
19 -45 59 -9 53 -61 203 -91 268 -70 145 -199 298 -318 377 -147 98 -299 145
-481 151 -66 2 -129 2 -140 -1z"/>
</g>
</svg>
